<svg xmlns="http://www.w3.org/2000/svg" xmlns:xlink="http://www.w3.org/1999/xlink" version="1.1"
	width="2775.0576838288025" height="3198.218405987772" viewBox="0 0 2775.0576838288025 3198.218405987772">

	<g transform="scale(9.910920299388579) translate(10, 10)">
		<defs id="SvgjsDefs2004"></defs>
		<g id="SvgjsG2005" featureKey="symbolFeature-0"
			transform="matrix(1.2737870431230551,0,0,1.2737870431230551,66.63105810310579,-8.916509301861385)" fill="#66c6ba">
			<g xmlns="http://www.w3.org/2000/svg">
				<g>
					<path fill-rule="evenodd" clip-rule="evenodd"
						d="M27.8,7c0.08,0,0.16,0,0.24,0c3.782,8.218,8.224,15.776,12,24    c6.381-0.5,13.83,0.07,20.16-0.48C64.254,22.813,68.174,14.973,71.96,7c0.08,0,0.16,0,0.24,0    c7.237,17.172,21.862,33.197,23.04,56.16c0.241,4.696-0.587,8.264-1.68,12.24c-4.015,0.306-9.261-0.621-12.48,0.479    c1.035,1.296,3.424,0.721,5.521,0.721c2.093,0,4.413,0,6.239,0c-0.838,2.361-2.18,4.22-3.84,5.76    c-3.039-0.208-6.306-2.591-8.88-1.681c1.859,1.661,5.277,1.764,7.92,2.641c-1.594,1.446-3.442,2.638-5.52,3.6    c-1.924-0.636-2.944-2.176-5.04-2.64c-0.549,1.868,2.394,1.999,3.359,3.12c-8.327,4.393-19.208,1.431-24-5.04    c-0.794-1.073-1.03-2.364-1.439-3.36c-2.436,3.593-5.646,6.279-10.32,8.641c-6.24,3.151-11.692,4.345-18.96,1.199    c2.201-1.959,5.494-2.825,7.44-5.04c-2.929-0.438-6.17,3.498-9.36,4.561c-2.765-1.155-5.445-2.395-7.92-3.84    c4.169-2.231,10.464-2.337,14.4-4.801c-0.732-1.116-2.44-0.08-3.6,0.24c-3.561,0.982-8.259,2.354-12,3.36    c-3.046-1.754-5.072-4.528-6.96-7.44c6.196-0.872,14.938,0.549,21.12-0.72c-0.593-1.306-3.322-0.72-5.04-0.72    c-5.187,0-11.452,0-16.8,0c-1.154-2.446-1.785-5.415-2.4-8.4c0-2.32,0-4.64,0-6.96C8.612,37.732,20.173,24.333,27.8,7z     M15.08,35.32c5.439-3.361,12.757-4.843,21.36-5.04c-2.758-7.242-5.683-14.318-9.12-20.88C23.27,18.07,18.997,26.517,15.08,35.32z     M63.08,30.28c8.713,0.007,16.575,2.145,21.6,5.04c-4.483-8.396-8.175-17.584-12.72-25.92    C68.947,16.149,65.377,23.614,63.08,30.28z M32.36,61.96c4.751-0.141,4.103-16.594-0.72-15.12    C27.843,48.001,28.048,62.088,32.36,61.96z M72.92,59.8c4.796-0.21,4.04-14.687-0.96-12.96C68.407,48.067,68.26,60.004,72.92,59.8    z M55.64,78.04c2.686-5.315,5.897-10.104,8.641-15.36c-5.681,0.16-12-0.319-17.28,0.24C50.132,67.708,52.521,73.24,55.64,78.04z">
					</path>
					<path fill-rule="evenodd" clip-rule="evenodd"
						d="M47,92.68c-3.04,0-6.08,0-9.12,0c5.233-1.309,9.748-3.471,13.681-6.479    c0.828-0.634,3.181-3.151,3.6-3.12c-0.026-0.002,2.421,2.446,2.64,2.64c3.234,2.859,6.17,4.809,10.32,6    C61.367,92.327,53.867,92.188,47,92.68z">
					</path>
				</g>
			</g>
		</g>
		<g id="SvgjsG2006" featureKey="nameFeature-0"
			transform="matrix(0.8393293782227222,0,0,0.8393293782227222,-2.3987207504398764,119.40789294798918)"
			fill="#649dad">
			<path
				d="M19.429 17.714 l-9.1429 0 l0 16 l9.1429 0 l2.2857 -2.2857 l5.4286 0 l0 4.2857 l-4.2857 4.2857 l-15.714 0 l-4.2857 -4.2857 l0 -20 l4.2857 -4.2857 l15.714 0 l4.2857 4.2857 l0 4.2857 l-5.4286 0 z M52.85685714285714 11.428999999999998 l4.2857 4.2857 l0 20 l-4.2857 4.2857 l-16.571 0 l-4.2857 -4.2857 l0 -20 l4.2857 -4.2857 l16.571 0 z M49.713857142857144 33.7143 l0 -16 l-10.286 0 l0 16 l10.286 0 z M83.14285714285714 11.428999999999998 l7.4286 0 l0 28.571 l-7.4286 0 l0 -16 l-5.0286 9.7143 l-3.7143 0 l-4.9714 -9.7143 l0 16 l-7.4286 0 l0 -28.571 l7.4286 0 l6.8571 12.971 z M116.57142857142857 11.428999999999998 l7.4286 0 l0 28.571 l-7.4286 0 l0 -16 l-5.0286 9.7143 l-3.7143 0 l-4.9714 -9.7143 l0 16 l-7.4286 0 l0 -28.571 l7.4286 0 l6.8571 12.971 z M149.714 11.428999999999998 l4.2857 4.2857 l0 20 l-4.2857 4.2857 l-16.571 0 l-4.2857 -4.2857 l0 -20 l4.2857 -4.2857 l16.571 0 z M146.571 33.7143 l0 -16 l-10.286 0 l0 16 l10.286 0 z M176.571 11.428999999999998 l7.4286 0 l0 28.571 l-6.5714 0 l-11.143 -16 l0 16 l-7.4286 0 l0 -28.571 l6.5714 0 l11.143 15.886 l0 -15.886 z M202.28567142857142 40 l0 -24.286 l4.2857 -4.2857 l16.571 0 l4.2857 4.2857 l0 24.286 l-7.4286 0 l0 -8 l-10.286 0 l0 8 l-7.4286 0 z M209.71457142857142 25.714 l10.286 0 l0 -8 l-10.286 0 l0 8 z M232.28567142857142 35.7143 l0 -24.286 l7.4286 0 l0 22.286 l10.286 0 l0 -22.286 l7.4286 0 l0 24.286 l-4.2857 4.2857 l-16.571 0 z M260.28571142857146 17.714 l0 -6.2857 l24.286 0 l0 6.2857 l-8.4571 0 l0 22.286 l-7.4286 0 l0 -22.286 l-8.4 0 z M305.20042857142863 11.428999999999998 l7.4286 0 l0 28.571 l-7.4286 0 l0 -11.143 l-10.286 0 l0 11.143 l-7.4857 0 l0.057143 -28.571 l7.4286 0 l0 11.143 l10.286 0 l0 -11.143 z">
			</path>
		</g>
		<g id="SvgjsG2007" featureKey="sloganFeature-0"
			transform="matrix(5.650527580856743,0,0,5.650527580856743,37.73744633764995,155.63917318771857)" fill="#66c6ba">
			<path
				d="M7.7051 21.3867 q-0.556640625 -0.244140625 -0.810546875 -0.703125 q-0.1953125 -0.2734375 -0.60546875 -1.298828125 q-0.01953125 -0.205078125 -0.05859375 -0.341796875 l-0.039063 0.0097656 q0 -0.205078125 0.01953125 -0.21484375 q-0.009765625 -0.01953125 -0.048828125 -0.01953125 q-0.078125 -0.48828125 -0.078125 -0.751953125 q0 -0.126953125 0.01953125 -0.205078125 l-0.058594 -0.068359 q0 -0.41015625 0.0390625 -0.419921875 l-0.058594 -0.058594 l0.048828 -0.70313 l0.039063 -0.0097656 l0.019531 0.068359 l0.039063 -0.0097656 l-0.0097656 -0.039063 q-0.05859375 -0.048828125 -0.087890625 -0.13671875 l0.087891 0.019531 l0.019531 -0.087891 q-0.029296875 -0.107421875 -0.048828125 -0.107421875 l-0.019531 0.0097656 q0.009765625 -0.78125 0.205078125 -0.83984375 q-0.01953125 -0.078125 -0.078125 -0.13671875 q0.009765625 -0.048828125 0.009765625 -0.1171875 l0.039063 -0.019531 l0.019531 0.078125 l0.039063 -0.0097656 q-0.009765625 -0.01953125 -0.009765625 -0.048828125 l0.0097656 -0.078125 q-0.05859375 -0.05859375 -0.068359375 -0.09765625 l0.087891 0.019531 l0.039063 -0.0097656 l-0.019531 -0.078125 l-0.068359 0.058594 l-0.0097656 -0.039063 l0.068359 -0.3418 l0.029297 -0.0097656 l0.029297 0.068359 l0.029297 -0.0097656 l-0.0097656 -0.058594 q0 -0.107421875 0.078125 -0.283203125 q-0.05859375 -0.05859375 -0.068359375 -0.09765625 l0.087891 0.0097656 l0 -0.0097656 q0 -0.01953125 0.029296875 -0.029296875 q-0.05859375 -0.068359375 -0.078125 -0.107421875 q0.048828125 -0.146484375 0.048828125 -0.234375 q0 -0.0390625 -0.009765625 -0.05859375 l0.078125 -0.019531 l-0.019531 0.078125 l0.0097656 0.039063 l0.039063 -0.0097656 q0.087890625 -0.283203125 0.087890625 -0.46875 q0 -0.087890625 -0.01953125 -0.15625 l0.039063 -0.0097656 l0.019531 0.078125 l0.039063 -0.019531 q0 -0.068359375 0.009765625 -0.1171875 l-0.078125 0.019531 q0.0390625 -0.087890625 0.0390625 -0.13671875 l-0.0097656 -0.039063 l0.039063 -0.0097656 l0.019531 0.078125 l0.039063 -0.0097656 l-0.019531 -0.078125 q-0.0390625 0 -0.048828125 -0.01953125 l0.068359 -0.068359 q0.009765625 0.029296875 0.048828125 0.029296875 q-0.0390625 -0.09765625 -0.068359375 -0.09765625 l-0.0097656 0 q0.0390625 -0.283203125 0.146484375 -0.37109375 q0.009765625 0.029296875 0.048828125 0.029296875 l0.0097656 -0.087891 l-0.048828 0.0097656 q-0.01953125 0 -0.029296875 -0.01953125 l0.097656 -0.35156 l-0.0097656 -0.039063 l-0.039063 0.0097656 l0 0.0097656 q0 0.068359375 -0.33203125 0.52734375 q-0.80078125 1.40625 -1.044921875 1.474609375 q-0.13671875 0.224609375 -0.80078125 0.634765625 q-0.087890625 0 -0.33203125 -0.029296875 l0.0097656 0.039063 q-0.029296875 0.009765625 -0.068359375 0.009765625 q-0.400390625 0 -1.2109375 -1.11328125 l-0.039063 0.0097656 q-0.21484375 1.484375 -0.751953125 3.22265625 q-0.087890625 0.44921875 -0.517578125 1.03515625 q-0.458984375 0.126953125 -0.5078125 0.126953125 q-0.21484375 0 -0.546875 -0.2734375 l-0.039063 0.0097656 l0.0097656 -0.087891 q-0.029296875 -0.09765625 -0.13671875 -0.205078125 l0.039063 -0.0097656 q-0.068359375 -0.126953125 -0.107421875 -0.126953125 l-0.0097656 0 l0.019531 -0.087891 l-0.029297 -0.078125 q-0.126953125 -0.0390625 -0.224609375 -0.380859375 q0.09765625 -0.0390625 0.13671875 -0.517578125 l0.039063 -0.0097656 l0.0097656 0.029297 q0.224609375 -0.234375 0.634765625 -1.7578125 l0.33203 -1.2695 q0.09765625 -0.029296875 0.09765625 -0.078125 q0 -0.01953125 -0.0048828125 -0.0341796875 t-0.024414 -0.043945 t-0.048828 -0.058594 l0.068359 -0.058594 q0.009765625 0.029296875 0.048828125 0.029296875 l-0.058594 -0.068359 q0.029296875 -0.087890625 0.029296875 -0.15625 q0 -0.029296875 -0.009765625 -0.048828125 l0.039063 -0.0097656 l0.019531 0.078125 l0.039063 -0.019531 q0.263671875 -1.220703125 0.4296875 -1.77734375 l-0.068359 -0.10742 l0.087891 0.019531 q0.1953125 -0.7421875 0.1953125 -1.064453125 q0 -0.107421875 -0.01953125 -0.166015625 l0.039063 -0.0097656 l0.019531 0.078125 q0.126953125 -0.21484375 0.126953125 -0.361328125 l-0.0097656 -0.078125 l-0.039063 0.0097656 l0 -0.0097656 q0 -0.068359375 0.126953125 -0.2734375 q0 -0.01953125 -0.009765625 -0.0390625 t-0.048828 -0.019531 q0.009765625 -0.05859375 0.009765625 -0.126953125 l0.087891 0.019531 l-0.019531 -0.039063 q-0.05859375 -0.068359375 -0.068359375 -0.107421875 q0.048828125 -0.166015625 0.048828125 -0.244140625 q0 -0.029296875 -0.009765625 -0.048828125 l0.039063 -0.0097656 l0.029297 0.11719 l0.039063 -0.0097656 q-0.048828125 -0.185546875 -0.048828125 -0.283203125 q0 -0.107421875 0.05859375 -0.126953125 l0.0097656 0.039063 l-0.019531 0.078125 l0.078125 -0.019531 q0 -0.068359375 0.009765625 -0.1171875 q-0.0390625 0 -0.048828125 -0.029296875 q0.107421875 -0.0390625 0.17578125 -0.498046875 l-0.097656 0.068359 l-0.0097656 -0.039063 q0.009765625 -0.166015625 0.068359375 -0.185546875 l0.087891 0.019531 l-0.0097656 -0.058594 q0 -0.068359375 0.048828125 -0.078125 q-0.029296875 -0.09765625 -0.05859375 -0.09765625 l-0.0097656 0 l0.24414 -1.1621 l0.087891 -0.10742 q0.166015625 -0.009765625 0.44921875 -0.009765625 l-0.0097656 -0.039063 q0.986328125 0.05859375 1.0546875 0.3125 q0.166015625 0.283203125 0.21484375 0.46875 q0.0390625 0.126953125 0.0390625 0.4296875 q0 0.56640625 -0.13671875 1.787109375 q-0.048828125 0.01953125 -0.048828125 0.2734375 l0.0097656 0.3125 q-0.166015625 0.0390625 -0.166015625 0.859375 q-0.078125 0.107421875 -0.09765625 1.083984375 q-0.0390625 0.009765625 -0.0390625 0.33203125 q0 0.283203125 0.029296875 0.80078125 l0.11719 -0.029297 q0.244140625 -0.263671875 0.91796875 -1.484375 q0.009765625 0.029296875 0.048828125 0.029296875 l0.60547 -1.1816 q0.361328125 -0.830078125 0.927734375 -1.884765625 l0.029297 -0.0097656 l-0.0097656 0.087891 q0.01953125 -0.009765625 0.0341796875 -0.0244140625 t0.014648 -0.043945 q0 -0.05859375 -0.029296875 -0.146484375 l0.039063 -0.0097656 l0.019531 0.078125 q0.146484375 -0.078125 0.146484375 -0.1953125 l-0.0097656 -0.048828 l-0.039063 0.0097656 q-0.068359375 0.09765625 -0.126953125 0.1171875 q0.126953125 -0.3515625 0.21484375 -0.380859375 l0.019531 0.068359 l-0.078125 0.029297 l0.029297 0.068359 q0.185546875 -0.224609375 0.185546875 -0.33203125 q-0.05859375 -0.05859375 -0.078125 -0.146484375 l0.19531 -0.29297 l0.0097656 0.029297 l-0.039063 0.13672 l0.039063 -0.0097656 l0.18555 -0.33203 l-0.019531 -0.078125 q-0.107421875 0.09765625 -0.107421875 0.185546875 l0.0097656 0.039063 l-0.078125 0.029297 l-0.0097656 -0.039063 q0 -0.05859375 0.234375 -0.46875 l0.0097656 0.029297 q-0.0390625 0.087890625 -0.0390625 0.13671875 l0.019531 0.078125 q0.01953125 -0.009765625 0.0244140625 -0.009765625 t0.043945 -0.17578 l0.087891 0.019531 q-0.009765625 -0.029296875 -0.009765625 -0.087890625 t0.019531 -0.15625 l0.087891 0.0097656 q0 -0.13671875 0.13671875 -0.361328125 l-0.0097656 -0.039063 q-0.078125 0.01953125 -0.224609375 0.3515625 l-0.039063 0.0097656 l-0.0097656 -0.039063 q0.400390625 -0.83984375 0.44921875 -0.859375 l0.0097656 0.039063 q-0.146484375 0.302734375 -0.146484375 0.3515625 l0.039063 0 q0 -0.05859375 0.244140625 -0.4296875 q0.0390625 -0.087890625 0.0390625 -0.13671875 l-0.0097656 -0.039063 l0.087891 0.019531 q0 -0.13671875 0.37109375 -0.712890625 l-0.019531 -0.078125 l-0.097656 0.10742 l-0.0097656 -0.039063 q0.087890625 -0.29296875 0.8984375 -1.42578125 l0.61523 -0.70313 l0.15625 0.0097656 q0.068359375 0 0.126953125 -0.009765625 l-0.019531 0.087891 l0.0097656 0.039063 l0.16602 -0.12695 q0.263671875 0.068359375 0.283203125 0.1171875 q0.615234375 0.05859375 0.80078125 0.712890625 q0.029296875 0.09765625 0.029296875 0.244140625 q0 0.322265625 -0.15625 0.888671875 q-0.205078125 0.361328125 -0.478515625 1.30859375 q-0.4296875 1.064453125 -0.546875 1.2109375 q-0.146484375 0.634765625 -0.693359375 1.85546875 q0 0.068359375 -1.171875 3.33984375 q-0.341796875 0.6640625 -0.341796875 0.78125 l0 0.019531 q0 0.107421875 -0.361328125 0.859375 q-0.087890625 0.4296875 -0.5078125 1.650390625 q-0.439453125 2.01171875 -0.439453125 2.5390625 q0 0.107421875 0.048828125 0.244140625 l-0.078125 0.019531 q0.029296875 0.029296875 0.048828125 0.05859375 t0.019531 0.048828 q-0.048828125 0.009765625 -0.048828125 0.15625 q0 0.13671875 0.048828125 0.41015625 q0.087890625 0.87890625 0.224609375 1.806640625 q-0.029296875 0.009765625 -0.029296875 0.078125 q0 0.205078125 0.13671875 0.458984375 l-0.058594 0.058594 l-0.087891 -0.019531 l-0.019531 0.087891 q0.17578125 0.166015625 0.17578125 0.185546875 q0 0.048828125 -0.09765625 0.078125 z M9.6973 3.446999999999999 q0.1171875 -0.087890625 0.1171875 -0.13671875 l-0.0097656 -0.058594 q-0.068359375 0.107421875 -0.126953125 0.1171875 z M9.1797 4.199 l0.078125 -0.019531 q0.05859375 -0.01953125 0.25390625 -0.390625 q0.087890625 -0.234375 0.17578125 -0.25390625 l-0.0097656 -0.039063 l-0.039063 0.0097656 q-0.185546875 0.166015625 -0.458984375 0.693359375 z M8.7012 4.9510000000000005 l-0.0097656 -0.048828 q0 -0.05859375 0.078125 -0.13671875 l0.039063 -0.0097656 l0.019531 0.068359 q-0.048828125 0.01953125 -0.048828125 0.068359375 l0 0.029297 z M8.5449 5.234 l0 -0.11719 l0.078125 -0.029297 l-0.0097656 0.097656 l0 0.029297 z M3.0371 7.1579999999999995 l0.039063 -0.0097656 l0 -0.12695 l-0.039063 0.0097656 l-0.0097656 0.087891 z M8.0273 6.279 l0 -0.12695 l0.078125 -0.019531 l0.0097656 0.068359 q0 0.0390625 -0.05859375 0.05859375 z M7.1484 8.35 q0.048828125 -0.01953125 0.078125 -0.146484375 l-0.0097656 -0.039063 q-0.048828125 0.01953125 -0.078125 0.146484375 z M6.9727 8.721 q0.05859375 -0.13671875 0.1171875 -0.15625 l-0.029297 -0.10742 l-0.039063 0.0097656 z M6.123 18.9453 l-0.048828 -0.18555 l0.029297 -0.0097656 l0.058594 0.18555 z M10.83984625 18.75 q0.4296875 -0.263671875 0.4296875 -0.33203125 l0.039063 0 q0.009765625 0.029296875 0.048828125 0.029296875 q0 -0.078125 0.25390625 -0.185546875 q-0.0390625 -0.05859375 -0.05859375 -0.1171875 l0.087891 0.029297 q0.0390625 -0.15625 0.205078125 -0.21484375 l0.0097656 0.068359 l0.039063 0 l-0.0097656 -0.078125 q-0.0390625 0 -0.0390625 -0.029296875 l0.10742 -0.097656 q0.01953125 0.068359375 0.078125 0.068359375 q0 -0.078125 0.107421875 -0.087890625 l-0.058594 -0.19531 q0.05859375 0 0.1171875 0.029296875 q0 -0.087890625 0.087890625 -0.244140625 q0 -0.0390625 0.0390625 -0.048828125 q0.078125 0 0.087890625 0.068359375 q-0.09765625 0.009765625 -0.17578125 0.21484375 l0.039063 0 q0.380859375 -0.478515625 0.44921875 -0.48828125 l0 -0.078125 l-0.078125 0.0097656 l0.0097656 0.078125 q-0.068359375 0 -0.09765625 -0.107421875 q0.17578125 -0.029296875 0.17578125 -0.17578125 q0.078125 0 0.087890625 0.05859375 q-0.068359375 0.029296875 -0.068359375 0.087890625 l0.17578 -0.13672 l-0.048828 -0.068359 q0.009765625 -0.087890625 0.068359375 -0.087890625 l-0.048828 -0.078125 l0 -0.039063 l0.15625 -0.019531 l0.0097656 0.078125 q0.05859375 -0.009765625 0.13671875 -0.17578125 l-0.039063 0.0097656 q0 0.078125 -0.068359375 0.078125 q-0.0390625 0 -0.0390625 -0.029296875 q0 -0.1953125 0.087890625 -0.205078125 q0 0.05859375 -0.029296875 0.1171875 l0.039063 0 q0 -0.078125 0.068359375 -0.087890625 l0.0097656 0.078125 l0.21484 -0.22461 q0 0.0390625 0.0390625 0.0390625 q0 -0.185546875 0.185546875 -0.380859375 q0 -0.0390625 -0.0390625 -0.0390625 l-0.0097656 -0.11719 q0 -0.15625 0.087890625 -0.166015625 l-0.048828 -0.43945 q0 -0.01953125 0.029296875 -0.029296875 q0 -0.029296875 -0.0390625 -0.029296875 q0.01953125 -0.8203125 0.146484375 -1.357421875 l-0.048828 -0.078125 q0.107421875 -0.205078125 0.107421875 -0.400390625 q0.068359375 -0.009765625 0.068359375 -0.0390625 q-0.048828125 -0.146484375 -0.048828125 -0.166015625 q0.048828125 -0.1171875 0.048828125 -0.244140625 q-0.0390625 0 -0.048828125 -0.029296875 q0.0390625 -0.009765625 0.0390625 -0.048828125 q-0.0390625 0.009765625 -0.390625 0.37109375 q-0.009765625 -0.0390625 -0.048828125 -0.0390625 q0 0.078125 -0.400390625 0.56640625 q-1.9921875 2.900390625 -2.32421875 4.736328125 l0.058594 0.14648 l-0.0097656 0.23438 q0.0390625 0 0.0390625 0.0390625 z M15.64455625 26.0254 l-0.29297 -0.078125 q0 0.0390625 -0.029296875 0.0390625 q-0.05859375 -0.1171875 -0.17578125 -0.13671875 l0.0097656 0.078125 l-0.078125 0.0097656 q-0.390625 -0.5078125 -0.390625 -0.625 q0 -0.458984375 0.0390625 -1.259765625 l0.087891 0.029297 l-0.078125 -0.26367 q0 -0.0390625 0.0390625 -0.048828125 l0.0097656 0.078125 l0.039063 0 q-0.068359375 -0.1953125 -0.078125 -0.2734375 l0.078125 -0.0097656 q0 -0.0390625 -0.078125 -0.302734375 l0.039063 0 l0.0097656 0.078125 l0.039063 -0.0097656 q-0.009765625 -0.068359375 -0.009765625 -0.234375 l0.0097656 -0.42969 q-0.048828125 -0.078125 -0.05859375 -0.1171875 q0.078125 -0.009765625 0.078125 -0.048828125 q-0.009765625 -0.13671875 -0.009765625 -0.33203125 q0 -1.1328125 0.44921875 -4.052734375 l0.078125 0.029297 l-0.0097656 -0.11719 q0 -0.546875 0.478515625 -1.865234375 l-0.039063 0 l0.30273 -1.0547 q-0.048828125 -0.068359375 -0.05859375 -0.1171875 q0.068359375 -0.009765625 0.068359375 -0.126953125 l-0.039063 0.0097656 q-0.771484375 1.38671875 -1.89453125 2.83203125 q-1.73828125 2.1484375 -2.67578125 2.255859375 q0 -0.029296875 -0.0390625 -0.029296875 l0 0.039063 q-0.576171875 0 -1.171875 -0.29296875 q-0.771484375 -0.80078125 -0.830078125 -1.26953125 l0.039063 -0.0097656 l-0.048828 -0.068359 q-0.01953125 -0.146484375 -0.01953125 -0.29296875 q0 -0.615234375 0.33203125 -1.2890625 q0 -0.146484375 0.556640625 -1.240234375 q0.634765625 -1.455078125 1.962890625 -3.232421875 q0.52734375 -0.78125 0.7763671875 -0.810546875 t0.24902 -0.10742 l0.20508 0.0097656 l0.14648 -0.0097656 l0.078125 -0.048828 q0.009765625 0.09765625 0.33203125 0.107421875 q0.068359375 -0.0390625 0.146484375 -0.048828125 q0.400390625 0 0.859375 0.556640625 q0.078125 0.1171875 0.15625 0.33203125 l-0.029297 0.087891 l0.048828 0.068359 q-0.01953125 0.2734375 -0.01953125 0.517578125 q0.068359375 -0.048828125 0.15625 -0.05859375 q-0.05859375 0.166015625 -0.05859375 0.205078125 l0.039063 -0.0097656 q0.05859375 -0.17578125 0.05859375 -0.1953125 l0.039063 -0.0097656 l0.0097656 0.078125 l0.039063 -0.0097656 q0 -0.244140625 0.224609375 -0.380859375 l-0.048828 -0.068359 l0 -0.039063 q0.068359375 -0.009765625 0.068359375 -0.087890625 l0.078125 0.029297 q0 -0.1953125 0.05859375 -0.205078125 q0 0.0390625 0.0390625 0.0390625 l0 -0.039063 q-0.0390625 0 -0.048828125 -0.0390625 q0.13671875 -0.05859375 0.13671875 -0.17578125 l0.039063 0 l0.0097656 0.078125 l0.039063 -0.0097656 l-0.0097656 -0.15625 l0.0097656 -0.15625 l0.039063 0 l0.0097656 0.10742 l0.039063 0 q0 -0.087890625 0.224609375 -0.46875 q0 -0.05859375 0.05859375 -0.15625 q-0.0390625 0 -0.048828125 -0.0390625 q0.166015625 -0.01953125 0.205078125 -0.25390625 l0.087891 0.029297 q0.048828125 -0.21484375 0.048828125 -0.244140625 l0.078125 0.029297 q0 -0.1171875 0.126953125 -0.21484375 q-0.048828125 -0.068359375 -0.05859375 -0.146484375 l0.039063 -0.0097656 l0.087891 0.029297 q0.244140625 -0.576171875 0.322265625 -0.5859375 q0.0390625 -0.009765625 0.09765625 -0.17578125 q-0.048828125 -0.068359375 -0.05859375 -0.107421875 l0.087891 0.029297 q0 -0.0390625 0.029296875 -0.048828125 q0.009765625 0.0390625 0.048828125 0.0390625 q0 -0.087890625 0.078125 -0.244140625 l0 -0.039063 l0.078125 0.029297 q0 -0.1953125 0.05859375 -0.205078125 q0 0.029296875 0.0390625 0.029296875 l0.019531 -0.13672 q0 -0.01953125 -0.01953125 -0.01953125 t-0.019531 -0.039063 q0.09765625 -0.009765625 0.09765625 -0.166015625 l0.078125 0.029297 q0 -0.09765625 0.185546875 -0.13671875 q0 -0.09765625 0.087890625 -0.25390625 l-0.0097656 -0.078125 q0.05859375 0.029296875 0.1171875 0.029296875 q0 -0.166015625 0.283203125 -0.546875 q0.009765625 0.029296875 0.048828125 0.029296875 l-0.019531 -0.11719 q0.0390625 0 0.048828125 0.0390625 q0.05859375 -0.009765625 0.13671875 -0.17578125 q0.185546875 -0.01953125 0.234375 -0.341796875 q0.068359375 -0.048828125 0.107421875 -0.05859375 q0 0.029296875 0.029296875 0.029296875 l0.0097656 0 q0 -0.126953125 0.302734375 -0.458984375 l-0.0097656 -0.078125 l0.12695 0.058594 q0 -0.126953125 0.400390625 -0.517578125 q0 -0.068359375 0.52734375 -0.576171875 q0.185546875 -0.380859375 0.263671875 -0.390625 q0.15625 -0.25390625 0.390625 -0.361328125 q0.009765625 0.107421875 0.087890625 0.107421875 l0 -0.039063 q0.029296875 0 0.244140625 0.126953125 l0 -0.039063 l0.37109 0.14648 q0.166015625 0.263671875 0.400390625 0.390625 l-0.029297 0.078125 l0.10742 0.18555 q-0.078125 0.419921875 -0.64453125 1.181640625 q0 0.087890625 -0.9765625 1.62109375 q-0.6640625 1.162109375 -1.69921875 3.4765625 q-0.5078125 1.19140625 -0.908203125 2.236328125 l0.048828 0.068359 q-0.146484375 0.01953125 -0.673828125 1.81640625 q-0.5859375 1.611328125 -1.103515625 5.09765625 q-0.13671875 0.810546875 -0.15625 3.525390625 q-0.068359375 0.17578125 -0.126953125 0.52734375 q-0.1171875 0.341796875 -0.546875 0.654296875 z M25.957021875 20.79102 q-0.771484375 0 -1.259765625 -0.625 q-1.07421875 -0.76171875 -1.533203125 -3.0859375 l-0.078125 -0.019531 l0.019531 -0.087891 q-0.205078125 -1.025390625 -0.234375 -1.025390625 l-0.0097656 0 l0.029297 -0.087891 l-0.058594 -0.068359 l0.039063 0 l-0.048828 -0.078125 l-0.16602 -0.83984 l-0.078125 0.019531 q-0.302734375 1.2890625 -0.595703125 3.26171875 q-0.107421875 0.1171875 -0.234375 0.60546875 q-0.37109375 0.107421875 -0.37109375 0.146484375 q-0.849609375 -0.068359375 -0.95703125 -0.64453125 l-0.24414 -0.19531 l-0.039063 -0.18555 q0.048828125 -0.13671875 0.224609375 -1.71875 q0.068359375 -0.17578125 0.1171875 -0.185546875 l-0.019531 -0.10742 q0 -0.087890625 0.29296875 -1.1328125 l0 -0.0097656 q0 -0.15625 0.888671875 -3.154296875 q0.15625 -0.6640625 0.634765625 -1.8359375 l-0.058594 -0.068359 q0.068359375 -0.15625 0.068359375 -0.25390625 l0 -0.039063 q0.29296875 -0.068359375 0.29296875 -0.087890625 l0 -0.0097656 l0.087891 0.019531 q0.107421875 -0.009765625 0.107421875 -0.048828125 l0 -0.0097656 l0.087891 0.019531 q0.068359375 -0.01953125 0.068359375 -0.0390625 l0 -0.0097656 l0.36133 -0.019531 q0.703125 0 0.76171875 0.2734375 l0.019531 0 q0.146484375 0 0.205078125 0.3515625 l0 0.029297 l-0.0097656 0.097656 q0.009765625 0.029296875 0.048828125 0.029296875 l0.0097656 0.66406 q0 0.68359375 -0.0390625 1.40625 q0.048828125 0.05859375 0.068359375 0.146484375 q-0.068359375 0.01953125 -0.068359375 0.048828125 l0 0.0097656 q0.05859375 1.71875 0.087890625 1.884765625 q0.05859375 0.068359375 0.068359375 0.146484375 q-0.048828125 0.01953125 -0.048828125 0.087890625 q0 0.078125 0.0390625 0.078125 l0.0097656 0 q0 0.0390625 -0.01953125 0.1171875 q0.15625 1.015625 0.2734375 1.58203125 q0.087890625 0.44921875 0.1171875 0.44921875 l0.0097656 0 l0 0.0097656 q0 0.029296875 -0.029296875 0.0390625 q0.107421875 0.263671875 0.107421875 0.3515625 q0 0.029296875 -0.029296875 0.029296875 q0.068359375 0.09765625 0.068359375 0.17578125 q0 0.048828125 -0.01953125 0.09765625 q0.4296875 1.54296875 0.68359375 2.05078125 l0.039063 -0.0097656 q0.56640625 -0.7421875 0.7421875 -1.0546875 q1.25 -2.177734375 1.708984375 -3.291015625 q0.17578125 -0.322265625 0.17578125 -0.46875 l0 -0.039063 q0.25390625 -0.2734375 0.25390625 -0.5078125 l0 -0.019531 l0.078125 0.019531 l0.048828 -0.16602 l-0.0097656 0 q-0.029296875 0 -0.0390625 -0.029296875 q0.41015625 -0.947265625 0.576171875 -1.455078125 l0.087891 -0.26367 q0 -0.126953125 0.087890625 -0.146484375 l0.019531 0.078125 l0.029297 0 l-0.019531 -0.11719 q-0.048828125 -0.068359375 -0.05859375 -0.107421875 l0.019531 0 q0.05859375 0 0.087890625 0.13671875 q0.05859375 -0.01953125 0.05859375 -0.068359375 l-0.019531 -0.13672 l-0.078125 0.0097656 l-0.019531 -0.078125 q0.166015625 -0.029296875 0.234375 -0.439453125 l-0.0097656 -0.078125 q0 -0.078125 0.05859375 -0.087890625 q0.009765625 0.029296875 0.0390625 0.029296875 l0.0097656 0 q0 -0.01953125 -0.01953125 -0.048828125 t-0.048828 -0.058594 l0.068359 -0.058594 l0.019531 0.078125 l0.039063 -0.0097656 q-0.01953125 -0.078125 -0.01953125 -0.146484375 q0 -0.15625 0.107421875 -0.224609375 l0.068359 -0.21484 l-0.0097656 0 q-0.01953125 0 -0.029296875 -0.029296875 l0.078125 -0.019531 q-0.09765625 -0.078125 -0.107421875 -0.09765625 l0.068359 -0.048828 l0.087891 0.019531 l-0.058594 -0.30273 l0.0097656 0 q0.029296875 0 0.0390625 0.029296875 q0.1171875 -0.05859375 0.1171875 -0.185546875 l-0.0097656 -0.078125 l-0.039063 0.0097656 q0.01953125 -0.37109375 0.224609375 -0.87890625 l-0.0097656 -0.039063 l0.039063 -0.0097656 l0.0097656 0.078125 q0.0390625 -0.009765625 0.0390625 -0.048828125 l-0.058594 -0.068359 l0.058594 -0.29297 l-0.0097656 0 q-0.01953125 0 -0.029296875 -0.029296875 q0.087890625 -0.01953125 0.126953125 -0.341796875 l0.039063 -0.0097656 l0.019531 0.078125 l0.039063 -0.0097656 l-0.0097656 -0.039063 q-0.05859375 -0.05859375 -0.05859375 -0.107421875 q0.05859375 -0.185546875 0.05859375 -0.263671875 l0 -0.019531 l0.039063 -0.0097656 l0.0097656 0.078125 l0.039063 -0.0097656 l-0.019531 -0.11719 l-0.029297 0 q-0.048828125 0 -0.05859375 -0.048828125 t-0.019531 -0.087891 l0.087891 0.019531 l0 -0.019531 q0 -0.126953125 0.13671875 -0.68359375 l-0.0097656 -0.039063 l0.039063 -0.0097656 l0.019531 0.078125 q0.05859375 -0.009765625 0.05859375 -0.068359375 l-0.0097656 -0.058594 l-0.078125 0.019531 q0.05859375 -0.244140625 0.05859375 -0.3125 l0 -0.019531 l-0.068359 0.048828 l-0.029297 -0.14648 l0.078125 0.019531 q0 -0.0390625 0.09765625 -0.33203125 l-0.0097656 -0.039063 l-0.078125 0.0097656 l0 -0.19531 l0.039063 -0.0097656 l0.019531 0.078125 q0.05859375 -0.01953125 0.05859375 -0.068359375 l-0.0097656 -0.068359 l-0.068359 0.058594 l-0.0097656 -0.039063 q0.01953125 -0.048828125 0.01953125 -0.09765625 l-0.0097656 -0.058594 l0.039063 -0.0097656 l0.019531 0.078125 l0.078125 -0.019531 l0 -0.029297 q0 -0.107421875 0.0390625 -0.576171875 l-0.087891 -0.22461 l0.087891 0.029297 l0.019531 -0.087891 q-0.009765625 -0.029296875 -0.0390625 -0.029296875 l-0.0097656 0 l0.039063 -0.24414 l-0.078125 0.0097656 q0.01953125 -0.146484375 0.01953125 -0.234375 l-0.0097656 -0.087891 l-0.019531 0 q-0.05859375 0 -0.078125 -0.09765625 l0.029297 -0.078125 q-0.05859375 -0.15625 -0.1953125 -0.15625 l-0.039063 0 l-0.0097656 -0.039063 q0.15625 -0.166015625 0.15625 -0.224609375 l0 -0.0097656 l0.039063 0 l0.0097656 0.078125 l0.048828 -0.024414 t0.058594 -0.043945 q0.01953125 0.087890625 0.185546875 0.126953125 l0 -0.039063 q0.21484375 0.0390625 0.263671875 0.146484375 l0.068359 -0.058594 q0.087890625 0 0.263671875 0.3125 l0.039063 -0.0097656 l0 -0.0097656 q0 -0.029296875 0.029296875 -0.0390625 q0.341796875 0.537109375 0.341796875 0.546875 q0 0.029296875 -0.029296875 0.029296875 q0 0.0390625 0.09765625 0.302734375 q0.009765625 0.048828125 0.009765625 0.25390625 l-0.0097656 0.54688 l0.039063 -0.0097656 q-0.01953125 0.05859375 -0.01953125 0.09765625 l0 0.019531 l-0.039063 0.0097656 l-0.019531 -0.078125 l-0.029297 0.0097656 l0.0097656 0.068359 q0 0.09765625 -0.0390625 0.21484375 l0.078125 -0.019531 l0.019531 0.11719 l-0.12695 -0.048828 q0.05859375 0.09765625 0.087890625 0.09765625 l0.0097656 0 q-0.05859375 0.33203125 -0.05859375 0.44921875 l0 0.039063 l-0.039063 0.0097656 l-0.087891 -0.019531 l0.0097656 0.058594 q0 0.048828125 -0.01953125 0.09765625 l0.078125 -0.019531 l0.0097656 0.039063 q-0.09765625 0.13671875 -0.09765625 0.29296875 l0.0097656 0.087891 q-0.17578125 0.927734375 -0.244140625 1.5625 l0 0.0097656 q0 0.087890625 -0.244140625 0.791015625 l0 0.029297 l-0.0097656 0.097656 l0.039063 -0.0097656 l0 -0.0097656 q0 -0.029296875 0.029296875 -0.0390625 l0.0097656 0.078125 q-0.29296875 0.986328125 -0.33203125 1.54296875 q-0.166015625 0.3515625 -0.29296875 0.927734375 q-0.0390625 0.009765625 -0.185546875 0.673828125 q-0.0390625 0.009765625 -0.107421875 0.458984375 q-0.400390625 1.2890625 -1.2109375 3.14453125 q0 0.078125 -0.7421875 1.50390625 q-1.25 2.421875 -2.3046875 2.841796875 q-0.234375 0.048828125 -0.439453125 0.048828125 z M30.703421875 7.236000000000001 l0.039063 -0.0097656 l0 -0.029297 l0.0097656 -0.097656 l-0.039063 0.0097656 l-0.019531 0.087891 z M30.527421875 8.584 l0.078125 -0.019531 l-0.0097656 -0.11719 q0 -0.048828125 0.009765625 -0.078125 l-0.039063 0.0097656 z M29.921921875000002 10.7324 q0.01953125 -0.009765625 0.0341796875 -0.029296875 t0.024414 -0.058594 q-0.009765625 -0.0390625 -0.048828125 -0.0390625 l0 0.039063 z">
			</path>
		</g>
	</g>
</svg>
