<svg xmlns="http://www.w3.org/2000/svg" xmlns:xlink="http://www.w3.org/1999/xlink" version="1.1" width="3192"
	height="3192" viewBox="0 0 3192 3192">

	<g transform="scale(9.6) translate(10, 10)">
		<defs id="SvgjsDefs1741"></defs>
		<g id="SvgjsG1742" featureKey="rootContainer"
			transform="matrix(6.188118811881188,0,0,6.188118811881188,0,0.06187707185745239)" fill="#46cdcf">
			<path xmlns="http://www.w3.org/2000/svg"
				d="M25.25 50.49A25.25 25.25 0 1 1 50.5 25.24a25.28 25.28 0 0 1-25.25 25.25zm0-50.14a24.89 24.89 0 1 0 24.89 24.89A24.92 24.92 0 0 0 25.25.35z">
			</path>
		</g>
		<g id="SvgjsG1743" featureKey="symbolFeature-0"
			transform="matrix(0.8333319911271979,0,0,0.8333319911271979,115.45608836994774,62.10717114035275)" fill="#46cdcf">
			<path xmlns="http://www.w3.org/2000/svg"
				d="M83.43,59.406c0.694,5.351-4.472,44.786,8.456,32.817c4.948-6.863,1.438-44.188-4.101-54.2  c-8.255-14.917-25.253-8.298-33.194-1.837c-3.135,2.555-6.18,2.555-6.876,0.878c-1.57-14.525-13.029-12.383-13.518-14.702  c-1.194-5.722-8.87-8.931-9.197-7.899c-1.113,3.494-1.113,3.494-0.745,9.752c-6.399,4.725-7.625,8.314-8.253,8.381  c-1.942,0.207-8.88-0.173-9.698,1.195c-0.719,1.198,2.539,8.779,7.301,9.936c2.336,0.567,1.435,5.746,6.757,7.223  c3.186,0.886-8.278-2.152-14.206,3.114c-5.923,5.266,3.5,8.335,7.58,4.629c6.274-1.755,5.404,2.391,20.907-0.399  c-3.829,3.032-0.609,13.725,1.571,16.437c2.967,3.351,8.843,2.033,8.358-2.551c-0.351-3.351-4.439-3.592-2.089-7.421l4.093-4.87  c0,0,12.285,0.799,16.03-1.116C61.605,68.015,83.43,59.406,83.43,59.406z">
			</path>
		</g>
		<g id="SvgjsG1744" featureKey="nameFeature-0"
			transform="matrix(1.8946569739535981,0,0,1.8946569739535981,50.54338950507305,138.26411631255684)" fill="#46cdcf">
			<path
				d="M9.28 12 l0 21.6 l10.32 0 l0 6.4 l-16.72 0 l0 0 l0 -28 l6.4 0 z M40.2 12 c2.72 0 5.04 2.24 5.04 5 l-0.08 18.04 c0 2.76 -2.24 4.96 -5 4.96 l-9.84 0 c-2.72 0 -4.96 -2.2 -4.96 -4.96 l0 -18.04 c0 -2.76 2.24 -5 4.96 -5 l9.88 0 z M38.760000000000005 33.6 l0 -15.16 l-7 0 l0 15.16 l7 0 z M70.72 18.44 l-13.4 0 l0 15.16 l7 0 l0 -4.4 l-3.52 0 l0 -6.4 l9.92 0 l0 12.2 c0 2.76 -2.24 5 -5 5 l-9.84 0 c-2.76 0 -4.96 -2.24 -4.96 -5 l0 -18 c0 -2.76 2.2 -5 4.96 -5 l14.84 0 l0 6.44 z M82.88000000000001 12 l0 28 l-6.4 0 l0 -28 l6.4 0 z M102.04 12 l6.4 0 l0 28 l-6.4 0 l-7 -14.56 l0 14.56 l-6.4 0 l0 -28 l6.4 0 l7 14.6 l0 -14.6 z">
			</path>
		</g>
		<g id="SvgjsG1745" featureKey="sloganFeature-0"
			transform="matrix(0.7,0,0,0.7,139.89948107004165,224.66630067825318)" fill="#46cdcf">
			<path
				d="M16.914 20 l-1.9043 0 l-0.9082 -11.23 l-4.2676 11.23 l-1.1816 0 l-4.2383 -11.191 l-0.92773 11.191 l-1.9141 0 l1.0645 -13.809 l2.627 0 l3.9746 10.439 l3.9941 -10.439 l2.627 0 z M20.585928125 20 l0 -13.809 l4.5508 0 c4.248 0 6.4063 2.8516 6.4063 6.8945 c0 4.0723 -2.1582 6.9141 -6.4063 6.9141 l-4.5508 0 z M22.529328125 18.2422 l2.5293 0 c3.0176 0 4.4531 -2.002 4.4531 -5.1563 c0 -3.1348 -1.4355 -5.1465 -4.4531 -5.1465 l-2.5293 0 l0 10.303 z M44.140375 6.191000000000001 l1.9336 0 l0 13.809 l-2.0996 0 l-7.2168 -10.957 l0 10.957 l-1.9238 0 l0 -13.809 l2.0801 0 l7.2266 10.908 l0 -10.908 z">
			</path>
		</g>
	</g>
</svg>
