<svg xmlns="http://www.w3.org/2000/svg" xmlns:xlink="http://www.w3.org/1999/xlink" version="1.1" width="3192"
	height="3122.4954026152495" viewBox="0 0 3192 3122.4954026152495">

	<g transform="scale(9.6) translate(10, 10)">
		<defs id="SvgjsDefs2720"></defs>
		<g id="SvgjsG2721" featureKey="rootContainer"
			transform="matrix(6.174668963273684,0,0,6.174668963273684,0,-0.7566549580266476)" fill="#0dceda">
			<path xmlns="http://www.w3.org/2000/svg"
				d="M25.3 49.56A24.82 24.82 0 0 1 .65 27.31h.44a24.34 24.34 0 0 0 48.43 0h.44A24.82 24.82 0 0 1 25.3 49.56zM1.07 22.31h-.4a24.77 24.77 0 0 1 49.27 0h-.4a24.36 24.36 0 0 0-48.47 0z">
			</path>
			<circle xmlns="http://www.w3.org/2000/svg" cx=".71" cy="24.76" r=".71"></circle>
			<circle xmlns="http://www.w3.org/2000/svg" cx="49.9" cy="24.76" r=".71"></circle>
		</g>
		<g id="SvgjsG2722" featureKey="symbolFeature-0"
			transform="matrix(0.6666572289566688,0,0,0.6666572289566688,123.50583364917166,62.28338798304298)" fill="#0dceda">
			<path xmlns="http://www.w3.org/2000/svg"
				d="M26.245,66.187c0.31-17.097,15.073-13.52,11.966-24.71c-9.123-7.259-10.881-17.875-2.798-24.868  c-0.155-7.304,6.684-11.034,6.684-11.034s4.973,4.974,4.507,9.791c4.353-1.399,11.191,3.109,12.279,4.663  c2.332-3.886,10.567-3.729,10.567-3.729s2.643,10.412-4.04,14.143c-0.933,9.013-7.735,13.508-12.123,13.833  c-0.672,7.703,11.789,11.638,10.477,25.575c8.264,4.051,11.642,10.33,6.618,16.854c-7.719,10.021-27.888,10.721-29.996,6.216  c-2.202-4.705,1.406-8.968,9.605-7.492c7.5,1.35,24.432-3.936,11.642-11.314c-3.28,4.755-7.051,7.215-15.339,7.305  C33.649,81.556,26.058,76.59,26.245,66.187z">
			</path>
		</g>
		<g id="SvgjsG2723" featureKey="nameFeature-0"
			transform="matrix(1.4848361986824843,0,0,1.4848361986824843,56,128.24136042316564)" fill="#0dceda">
			<path
				d="M5.12 33.4 c1.96 0.88 3.68 1.32 5.12 1.32 c0.72 0 1.16 -0.04 1.36 -0.16 c0.92 -0.24 1.56 -0.76 1.96 -1.56 l0.04 -0.08 c0.2 -0.36 0.28 -0.8 0.28 -1.36 c0 -0.28 -0.08 -0.6 -0.24 -1 l-0.08 -0.16 c-0.52 -1.08 -1.68 -1.8 -3.8 -2.48 l-0.4 -0.12 l-0.12 -0.04 c-3.24 -0.96 -5.32 -2.48 -6.32 -4.6 c-0.4 -0.8 -0.6 -1.68 -0.6 -2.64 c0 -1 0.2 -1.96 0.6 -2.96 l0.08 -0.16 c0.92 -1.84 2.4 -3.04 4.36 -3.64 c1.4 -0.2 2.2 -0.32 2.4 -0.32 c2.72 0 5.88 1.12 9.44 3.32 l0.76 -1.24 c-3.88 -2.36 -7.24 -3.52 -10.16 -3.52 c-1.16 0 -2.12 0.12 -2.8 0.4 c-2.36 0.64 -4.12 2.08 -5.28 4.36 l-0.12 0.28 c-0.48 1.16 -0.72 2.32 -0.72 3.48 c0 1.24 0.24 2.32 0.72 3.28 c1.24 2.48 3.64 4.24 7.24 5.32 l0.48 0.16 c1.64 0.52 2.6 1.08 2.96 1.72 l0.04 0.08 c0.08 0.12 0.12 0.28 0.12 0.48 c0 0.36 -0.04 0.6 -0.16 0.8 c-0.28 0.64 -0.96 0.96 -2.04 0.96 c-1.72 0 -4.2 -0.88 -6.12 -2.12 l-0.6 -0.36 l-3.52 5.68 l0.6 0.36 c2.84 1.92 6.6 3.12 9.64 3.12 c1 0 1.92 -0.12 2.76 -0.36 c2.36 -0.68 4.12 -2.16 5.28 -4.4 l0.16 -0.28 c0.48 -1.24 0.72 -2.4 0.72 -3.48 c0 -0.96 -0.32 -2.16 -0.92 -3.64 c-1.08 -2.16 -3.36 -3.8 -6.92 -4.92 l-0.56 -0.16 c-1.12 -0.36 -1.88 -0.72 -2.24 -1 c-0.48 -0.4 -0.76 -0.68 -0.88 -0.84 l-0.08 -0.44 c0 -0.4 0.08 -0.76 0.28 -1.04 c0.32 -0.6 0.64 -0.76 1.92 -0.76 c1.72 0 4.2 0.88 6.12 2.12 l0.6 0.36 l2.16 -3.44 l-0.64 -0.36 c-2.44 -1.6 -5.76 -2.72 -8.2 -2.72 c-1.08 0 -1.76 0.08 -2.12 0.28 c-1.64 0.48 -2.88 1.52 -3.68 3.08 c-0.36 0.68 -0.52 1.48 -0.52 2.48 c0 0.76 0.16 1.48 0.48 2.16 c0.84 1.8 2.72 3.12 5.64 4 l0.52 0.16 l1.08 0.4 c0.6 0.24 1.24 0.56 1.96 0.96 c1.28 0.76 1.92 1.84 1.92 3.28 c0 0.8 -0.2 1.56 -0.56 2.24 c-0.84 1.48 -2.28 2.24 -4.28 2.24 c-1.36 0 -3.28 -0.52 -5.76 -1.52 l-0.68 1.16 l-0.04 0.08 c2.28 1.16 4.44 1.72 6.52 1.72 c1.16 0 2.24 -0.24 3.2 -0.72 c1.88 -0.92 3.04 -2.84 3.04 -5.24 c0 -3.8 -2.92 -4.92 -6 -6 l-0.52 -0.16 c-2.52 -0.76 -4.08 -1.8 -4.72 -3.2 c-0.24 -0.48 -0.36 -1 -0.36 -1.6 c0 -0.76 0.12 -1.36 0.4 -1.88 c0.64 -1.16 1.56 -1.92 2.76 -2.28 l1.6 -0.2 c2.12 0 4.44 0.72 6.96 2.12 l-0.64 1 c-2.6 -1.28 -4.68 -1.92 -6.2 -1.92 c-0.76 0 -1.2 0.04 -1.4 0.16 c-0.88 0.24 -1.52 0.76 -1.96 1.6 l-0.04 0.08 c-0.2 0.36 -0.28 0.84 -0.28 1.44 c0 0.44 0.08 0.76 0.2 0.96 c0.52 1.08 1.88 1.96 4.04 2.6 l0.52 0.16 l1 0.32 c0.12 0.04 0.76 0.32 1.92 0.88 c1.56 0.88 2.68 2 3.32 3.32 c0.4 0.8 0.6 1.68 0.6 2.64 c0 1.16 -0.2 2.16 -0.64 3 l-0.08 0.16 c-0.92 1.84 -2.4 3.04 -4.36 3.64 c-1.4 0.2 -2.2 0.32 -2.4 0.32 c-2.04 0 -4.68 -0.76 -7.12 -1.92 l-1.12 -0.6 l2 -3.24 z M23.314999999999998 12 l4.2 0 l0 25.32 l-1.44 0 l0 -23.88 l-1.32 0 l0 25.12 l4.04 0 l0 -26.56 l1.44 0 l0 28 l-6.92 0 l0 -28 z M48.39 40 c-2.48 0 -4.8 -0.64 -6.92 -1.92 c-4.32 -2.52 -7.04 -7.28 -7.04 -12.04 c0 -2.48 0.64 -4.84 1.92 -7.04 c2.56 -4.44 6.96 -6.96 12.04 -6.96 c3.48 0 6.84 1.32 9.4 3.68 c0.08 0.04 0.2 0.12 0.32 0.24 l0.28 0.32 l-1 1.04 l-0.56 -0.56 c-2.28 -2.12 -5.28 -3.28 -8.44 -3.28 c-2.24 0 -4.32 0.56 -6.24 1.68 c-3.88 2.24 -6.28 6.4 -6.28 10.88 c0 2.24 0.56 4.32 1.68 6.24 c2.24 3.88 6.36 6.28 10.84 6.28 c2.72 0 4.8 -0.76 8.2 -2.96 l0 -9.2 l-8.76 0 l0 -1.44 l10.16 0 l0 11.4 l-0.28 0.24 c-3.56 2.44 -6.12 3.4 -9.32 3.4 z M48.39 37.28 c-2 0 -3.88 -0.52 -5.6 -1.52 c-3.52 -2.04 -5.68 -5.72 -5.68 -9.72 c0 -2.04 0.52 -3.96 1.52 -5.72 c2.04 -3.48 5.64 -5.56 9.76 -5.56 c2.28 0 4.48 0.72 6.6 2.12 l1.04 0.8 l0.52 0.52 l-2.88 3.12 l-1.28 -1 c-1.16 -0.84 -2.52 -1.28 -4 -1.28 c-1.2 0 -2.36 0.32 -3.44 0.92 c-2.2 1.28 -3.52 3.52 -3.52 6.08 c0 1.2 0.32 2.36 0.96 3.44 c1.24 2.2 3.48 3.52 6 3.52 c1 0 1.92 -0.2 2.76 -0.64 l0 -0.64 l-3.32 0 l0 -4.08 l7.48 0 l0 7.12 l-0.92 0.72 c-1.8 1.24 -3.64 1.8 -6 1.8 z M48.39 16.2 c-1.76 0 -3.4 0.44 -4.92 1.32 c-3.04 1.76 -4.92 5 -4.92 8.52 c0 1.76 0.44 3.4 1.32 4.88 c1.76 3.04 5 4.92 8.52 4.92 c1.96 0 3.72 -0.52 5.2 -1.52 l0.28 -0.24 l0 -5 l-4.6 0 l0 1.2 l3.32 0 l0 3 l-0.4 0.2 c-1.32 0.64 -2.56 0.96 -3.8 0.96 c-1.44 0 -2.84 -0.4 -4.16 -1.16 c-2.68 -1.56 -4.24 -4.16 -4.24 -7.24 c0 -1.52 0.36 -2.92 1.12 -4.24 c1.48 -2.56 4.2 -4.16 7.28 -4.16 c1.72 0 3.36 0.52 4.84 1.52 l0.28 0.2 l0.96 -1.04 l-0.32 -0.24 c-1.72 -1.24 -3.64 -1.88 -5.76 -1.88 z M80.465 28.6 l-16.36 -16.6 l-2 0 l19.8 20.12 l0 -17.32 l-1.44 0 l0 13.8 z M79.14500000000001 25.4 l0 -12 l4.08 0 l0 25.16 l-0.68 0 l-0.16 -0.16 l-18.32 -18.56 l0 20.16 l4.2 0 l0 -11.8 l-1.48 -1.52 l0 11.88 l-1.28 0 l0 -15.2 l16.6 16.64 l2.56 0 l0 -28 l-6.96 0 l0 11.84 z M62.745000000000005 40 l0 -23.4 l19.16 19.44 l0 -2.12 l-20.56 -20.76 l0 26.84 l1.4 0 z M100.74 40 c-3.88 0 -6.84 -1 -8.8 -3 c-1.92 -1.92 -2.92 -4.76 -2.92 -8.12 l0 -16.84 l6.8 0 l0 16.84 c0 3.04 1.48 4.32 4.72 4.32 c3.16 0 4.88 -1.56 4.88 -4.32 l0 -16.84 l4.12 0 l0 16.84 c0 2.12 -0.56 4.12 -1.64 5.56 c-1.44 1.96 -3.72 2.88 -7.24 2.88 c-2.04 0 -3.68 -0.28 -4.92 -0.88 c-2.52 -1.16 -4.04 -3.76 -4.04 -7.56 l0 -14.28 l1.44 0 l0 14.28 c0 4.52 2.6 7 7.52 7 s7.44 -2.48 7.44 -7 l0 -15.4 l-1.24 0 l0 15.4 c0 3.52 -2.36 5.76 -6.32 5.76 c-4 0 -6.12 -2.04 -6.12 -5.76 l0 -15.4 l-3.96 0 l0 15.4 c0 6.36 3.52 9.68 10.28 9.68 c3.52 0 5.92 -0.84 7.56 -2.56 s2.52 -4.2 2.52 -7.12 l0 -16.84 l1.44 0 l0 16.84 c0 3.36 -1.04 6.16 -2.96 8.12 c-1.92 2 -4.76 3 -8.56 3 z M115.49499999999999 11.96 l1.48 0 l0 26.56 l3.96 0 l0 -9.64 l4.92 0 c1.8 0 3.28 -0.4 4.52 -1.24 c1.92 -1.16 2.92 -3.52 2.92 -6.6 c0 -4.96 -2.8 -7.6 -7.96 -7.6 l-5.72 0 l0 9.96 l5.12 0 c2.08 0 2.88 -0.64 2.88 -2.36 c0 -1.4 -0.68 -2.08 -2.08 -2.08 l-3.04 0 l0 3.24 l-1.48 0.04 l0 -4.68 l4.52 0 c2.2 0 3.44 1.28 3.44 3.48 c0 2.56 -1.4 3.84 -4.24 3.84 l-6.48 0 l0 -12.92 l7.08 0 c5.8 0 9.36 3.36 9.36 9.08 c0 5.92 -3.24 9.32 -8.84 9.32 l-3.44 0 l0 9.64 l-6.92 0 l0 -28.04 z M118.255 26.2 l6.72 0 c3.72 0 5.52 -1.6 5.52 -4.96 c0 -3.16 -1.72 -5 -4.48 -5 l-5 0 l0 -1.44 l5 0 c1.12 0 2.16 0.24 3.08 0.76 c1.88 1 2.84 3 2.84 5.68 c0 4.16 -2.32 6.36 -6.96 6.36 l-5.36 0 l0 10 l-1.36 0 l0 -11.4 z">
			</path>
		</g>
		<g id="SvgjsG2724" featureKey="sloganFeature-0"
			transform="matrix(2.777777424565113,0,0,2.777777424565113,99.9999986754525,184.11111817536442)" fill="#0dceda">
			<path
				d="M9.26 20 l0 -12.72 l-3.62 8.66 l-1.12 -0.02 l-3.54 -8.66 l0 12.74 l-0.98 0 l0 -15 l1.04 0 l4.06 9.76 l4.08 -9.76 l1.06 0 l0 15 l-0.98 0 z M24.739 16.96 c-0.09334 0.41334 -0.23 0.80334 -0.41 1.17 s-0.41666 0.69 -0.71 0.97 s-0.65 0.5 -1.07 0.66 s-0.91 0.24 -1.47 0.24 l-3.64 0 l0 -15 l3.5 0 c1.0133 0 1.8633 0.23666 2.55 0.71 s1.13 1.27 1.33 2.39 c0.04 0.21334 0.07334 0.54334 0.1 0.99 s0.04666 0.96 0.06 1.54 s0.02 1.19 0.02 1.83 s-0.01 1.2533 -0.03 1.84 s-0.05 1.1167 -0.09 1.59 s-0.08666 0.83 -0.14 1.07 z M20.759 6.02 l-2.32 0.000019531 l0 12.9 l2.6 0 c0.36 0 0.68 -0.06334 0.96 -0.19 s0.53 -0.29332 0.75 -0.49998 s0.40334 -0.43666 0.55 -0.69 s0.26666 -0.5 0.36 -0.74 c0.06666 -0.17334 0.12332 -0.48668 0.16998 -0.94002 s0.08 -0.97 0.1 -1.55 s0.03 -1.1967 0.03 -1.85 s-0.01 -1.2667 -0.03 -1.84 s-0.05 -1.08 -0.09 -1.52 s-0.08666 -0.74666 -0.14 -0.92 c-0.08 -0.24 -0.18666 -0.49 -0.32 -0.75 s-0.31 -0.49334 -0.53 -0.7 s-0.5 -0.37666 -0.84 -0.51 s-0.75666 -0.2 -1.25 -0.2 z M38.858000000000004 20 l-5.8 -12.88 l0 12.88 l-1.1 0 l0 -15 l1.18 0 l5.8 12.3 l0.14 -12.3 l1.08 0 l0 15 l-1.3 0 z">
			</path>
		</g>
	</g>
</svg>
